# xmcd
#
# Track frame offsets: 
#        150
#        26390
#        47953
#        61055
#        62885
#        78168
#        87138
#        131980
#        154908
#        172635
#
# Disc length: 2430 seconds
#
# Revision: 8
# Processed by: cddbd v1.5.2PL0 Copyright (c) Steve Scherf et al.
# Submitted via: ExactAudioCopy v1.0b3
#
DISCID=76097c0a
DTITLE=Mahavishnu Orchestra - Birds Of Fire
DYEAR=1973
DGENRE=Fusion
TTITLE0=Birds Of Fire
TTITLE1=Miles Beyond
TTITLE2=Celestial Terrestial Commuters
TTITLE3=Sapphire Bullets Of Pure Love
TTITLE4=Thousand Island Park
TTITLE5=Hope
TTITLE6=One Word
TTITLE7=Sanctuary
TTITLE8=Open Country Joy
TTITLE9=Resolution
EXTD=
EXTT0=
EXTT1=
EXTT2=
EXTT3=
EXTT4=
EXTT5=
EXTT6=
EXTT7=
EXTT8=
EXTT9=
PLAYORDER=
